<?xml version="1.0" encoding="UTF-8" standalone="no"?>
<!-- Created with Inkscape (http://www.inkscape.org/) -->

<svg
   xmlns:dc="http://purl.org/dc/elements/1.1/"
   xmlns:cc="http://creativecommons.org/ns#"
   xmlns:rdf="http://www.w3.org/1999/02/22-rdf-syntax-ns#"
   xmlns:svg="http://www.w3.org/2000/svg"
   xmlns="http://www.w3.org/2000/svg"
   xmlns:sodipodi="http://sodipodi.sourceforge.net/DTD/sodipodi-0.dtd"
   xmlns:inkscape="http://www.inkscape.org/namespaces/inkscape"
   width="210mm"
   height="297mm"
   viewBox="0 0 210 297"
   version="1.1"
   id="svg8"
   inkscape:version="0.92.3 (2405546, 2018-03-11)"
   sodipodi:docname="all.svg">
  <defs
     id="defs2" />
  <sodipodi:namedview
     id="base"
     pagecolor="#ffffff"
     bordercolor="#666666"
     borderopacity="1.0"
     inkscape:pageopacity="0.0"
     inkscape:pageshadow="2"
     inkscape:zoom="2.4407375"
     inkscape:cx="244.64879"
     inkscape:cy="909.01672"
     inkscape:document-units="mm"
     inkscape:current-layer="layer1"
     showgrid="false"
     inkscape:window-width="1920"
     inkscape:window-height="1027"
     inkscape:window-x="1912"
     inkscape:window-y="-8"
     inkscape:window-maximized="1" />
  <metadata
     id="metadata5">
    <rdf:RDF>
      <cc:Work
         rdf:about="">
        <dc:format>image/svg+xml</dc:format>
        <dc:type
           rdf:resource="http://purl.org/dc/dcmitype/StillImage" />
        <dc:title></dc:title>
      </cc:Work>
    </rdf:RDF>
  </metadata>
  <g
     inkscape:label="Layer 1"
     inkscape:groupmode="layer"
     id="layer1">
    <path
       style="color:#000000;font-style:normal;font-variant:normal;font-weight:normal;font-stretch:normal;font-size:medium;line-height:normal;font-family:sans-serif;font-variant-ligatures:normal;font-variant-position:normal;font-variant-caps:normal;font-variant-numeric:normal;font-variant-alternates:normal;font-feature-settings:normal;text-indent:0;text-align:start;text-decoration:none;text-decoration-line:none;text-decoration-style:solid;text-decoration-color:#000000;letter-spacing:normal;word-spacing:normal;text-transform:none;writing-mode:lr-tb;direction:ltr;text-orientation:mixed;dominant-baseline:auto;baseline-shift:baseline;text-anchor:start;white-space:normal;shape-padding:0;clip-rule:nonzero;display:inline;overflow:visible;visibility:visible;opacity:1;isolation:auto;mix-blend-mode:normal;color-interpolation:sRGB;color-interpolation-filters:linearRGB;solid-color:#000000;solid-opacity:1;vector-effect:none;fill:#006ea4;fill-opacity:1;fill-rule:nonzero;stroke:#000000;stroke-width:0.2;stroke-linecap:butt;stroke-linejoin:miter;stroke-miterlimit:4;stroke-dasharray:none;stroke-dashoffset:0;stroke-opacity:0.99497485;color-rendering:auto;image-rendering:auto;shape-rendering:auto;text-rendering:auto;enable-background:accumulate"
       d="m 18.005859,39.923828 c -4.563731,0 -8.2753902,-3.709706 -8.2753902,-8.273437 0,-4.563732 3.7116592,-8.273438 8.2753902,-8.273438 4.563732,0 8.273438,3.709706 8.273438,8.273438 0,4.563731 -3.709706,8.273437 -8.273438,8.273437 z m 0,-1 c 4.023292,0 7.273438,-3.250146 7.273438,-7.273437 0,-4.023292 -3.250146,-7.273438 -7.273438,-7.273438 -4.023291,0 -7.27539,3.250146 -7.27539,7.273438 0,4.023291 3.252099,7.273437 7.27539,7.273437 z"
       id="path3713"
       inkscape:connector-curvature="0"
       inkscape:export-xdpi="27.297432"
       inkscape:export-ydpi="27.297432" />
    <circle
       inkscape:export-ydpi="30.698235"
       inkscape:export-xdpi="30.698235"
       r="7.7740903"
       transform="scale(1,-1)"
       style="opacity:1;fill:none;fill-opacity:1;stroke:#006ea4;stroke-width:1;stroke-miterlimit:4;stroke-dasharray:none;stroke-opacity:1"
       cy="-108.94194"
       cx="12.802136"
       id="circle5954" />
    <rect
       style="opacity:1;fill:none;stroke:#006ea4;stroke-width:1;stroke-miterlimit:4;stroke-dasharray:none;stroke-opacity:1"
       id="rect5958"
       width="14.092393"
       height="14.092393"
       x="33.713341"
       y="24.800005"
       inkscape:export-xdpi="33.66"
       inkscape:export-ydpi="33.66" />
    <path
       style="color:#000000;font-style:normal;font-variant:normal;font-weight:normal;font-stretch:normal;font-size:medium;line-height:normal;font-family:sans-serif;font-variant-ligatures:normal;font-variant-position:normal;font-variant-caps:normal;font-variant-numeric:normal;font-variant-alternates:normal;font-feature-settings:normal;text-indent:0;text-align:start;text-decoration:none;text-decoration-line:none;text-decoration-style:solid;text-decoration-color:#000000;letter-spacing:normal;word-spacing:normal;text-transform:none;writing-mode:lr-tb;direction:ltr;text-orientation:mixed;dominant-baseline:auto;baseline-shift:baseline;text-anchor:start;white-space:normal;shape-padding:0;clip-rule:nonzero;display:inline;overflow:visible;visibility:visible;opacity:1;isolation:auto;mix-blend-mode:normal;color-interpolation:sRGB;color-interpolation-filters:linearRGB;solid-color:#000000;solid-opacity:1;vector-effect:none;fill:#006ea4;fill-opacity:1;fill-rule:nonzero;stroke:none;stroke-width:1;stroke-linecap:butt;stroke-linejoin:miter;stroke-miterlimit:4;stroke-dasharray:none;stroke-dashoffset:0;stroke-opacity:1;color-rendering:auto;image-rendering:auto;shape-rendering:auto;text-rendering:auto;enable-background:accumulate"
       d="m 63.529269,23.719646 c -0.03058,0.03058 -0.05819,0.06184 -0.08837,0.0925 -3.847922,0.04325 -7.071468,2.723476 -7.945768,6.315892 l -0.06356,0.01137 c 0.0083,0.04684 0.01927,0.09203 0.02894,0.137977 -0.130217,0.582189 -0.20102,1.186701 -0.20102,1.807641 0,4.563732 3.711731,8.273397 8.275463,8.273397 4.563732,0 8.273396,-3.709665 8.273396,-8.273397 0,-4.534966 -3.663458,-8.227016 -8.187613,-8.273397 z m 0.0057,1.089856 c 3.877715,1e-6 7.035937,3.021682 7.259505,6.842477 -1.882571,1.104055 -5.307057,1.987491 -8.378301,1.956469 -0.720691,-0.0073 -1.419545,-0.06763 -2.076873,-0.180351 -0.313383,-2.807234 0.523631,-5.838086 2.987413,-8.613427 0.06941,-0.002 0.138369,-0.0052 0.208256,-0.0052 z m -1.057299,0.077 c -2.204421,2.707924 -2.986987,5.660203 -2.72955,8.422225 C 59.165621,33.17226 58.6248,32.989912 58.150285,32.751139 57.33526,32.341022 56.71028,31.7869 56.335408,31.038581 c 0.456795,-3.180299 2.963476,-5.69066 6.142262,-6.152079 z m -6.215126,7.10396 c 0.426948,0.533948 0.983803,0.960877 1.626259,1.284158 0.582141,0.292933 1.236038,0.504058 1.933215,0.652158 0.289266,1.922296 1.079172,3.732967 2.234488,5.281329 -3.312284,-0.68131 -5.796544,-3.606577 -5.796544,-7.123078 0,-0.03174 0.0022,-0.06293 0.0026,-0.09457 z m 14.540198,0.331245 c -0.124843,3.913 -3.323905,7.036779 -7.267773,7.036779 -0.209317,0 -0.415841,-0.01118 -0.620633,-0.02842 -1.267283,-1.524637 -2.150666,-3.34442 -2.486671,-5.292182 0.636963,0.09807 1.302179,0.149709 1.982309,0.15658 3.038305,0.03068 6.330595,-0.759478 8.392768,-1.872755 z"
       id="circle5960"
       inkscape:connector-curvature="0"
       inkscape:export-xdpi="30.700001"
       inkscape:export-ydpi="30.700001" />
    <g
       id="g5998"
       transform="matrix(0.80724758,0,0,0.80724758,14.638891,7.2611418)"
       inkscape:export-xdpi="30.698235"
       inkscape:export-ydpi="30.698235">
      <rect
         style="opacity:1;fill:none;stroke:#006ea4;stroke-width:0.80000001;stroke-miterlimit:4;stroke-dasharray:none;stroke-opacity:1"
         id="rect5980"
         width="14.092393"
         height="14.092393"
         x="78.050179"
         y="25.233618" />
      <rect
         y="22.427986"
         x="83.387619"
         height="14.092393"
         width="14.092393"
         id="rect5982"
         style="opacity:1;fill:none;stroke:#006ea4;stroke-width:0.80000001;stroke-miterlimit:4;stroke-dasharray:none;stroke-opacity:1" />
      <path
         sodipodi:nodetypes="cc"
         inkscape:connector-curvature="0"
         id="path5984"
         d="m 83.279216,22.427986 -5.445845,2.832733"
         style="fill:#006ea4;fill-opacity:1;stroke:#006ea4;stroke-width:0.86500001;stroke-linecap:butt;stroke-linejoin:miter;stroke-miterlimit:4;stroke-dasharray:none;stroke-opacity:1" />
      <path
         sodipodi:nodetypes="cc"
         style="fill:#006ea4;fill-opacity:1;stroke:#006ea4;stroke-width:0.86500001;stroke-linecap:butt;stroke-linejoin:miter;stroke-miterlimit:4;stroke-dasharray:none;stroke-opacity:1"
         d="m 97.480011,22.427986 -5.337442,2.805632"
         id="path5986"
         inkscape:connector-curvature="0" />
      <path
         sodipodi:nodetypes="cc"
         inkscape:connector-curvature="0"
         id="path5988"
         d="m 97.669716,36.520378 -5.472945,2.914035"
         style="fill:#006ea4;fill-opacity:1;stroke:#006ea4;stroke-width:0.86500001;stroke-linecap:butt;stroke-linejoin:miter;stroke-miterlimit:4;stroke-dasharray:none;stroke-opacity:1" />
      <path
         sodipodi:nodetypes="cc"
         style="fill:#006ea4;fill-opacity:1;stroke:#006ea4;stroke-width:0.86500001;stroke-linecap:butt;stroke-linejoin:miter;stroke-miterlimit:4;stroke-dasharray:none;stroke-opacity:1"
         d="M 83.387619,36.520378 78.050177,39.32601"
         id="path5990"
         inkscape:connector-curvature="0" />
    </g>
    <path
       style="opacity:1;fill:none;fill-opacity:1;stroke:#006ea4;stroke-width:0.6384207;stroke-miterlimit:4;stroke-dasharray:none;stroke-opacity:1"
       d="m 103.88109,25.554041 v 4.480333 h -4.480327 v 3.84034 h 4.480327 v 4.480333 h 3.84034 v -4.480333 h 4.48072 v -3.84034 h -4.48072 v -4.480333 z"
       id="rect6000"
       inkscape:connector-curvature="0"
       inkscape:export-xdpi="37.798145"
       inkscape:export-ydpi="37.798145" />
    <path
       style="opacity:1;fill:none;fill-opacity:1;stroke:#006ea4;stroke-width:0.6384207;stroke-miterlimit:4;stroke-dasharray:none;stroke-opacity:1"
       d="m 64.422058,45.726276 -3.073715,3.76773 h 1.24437 v 3.645771 H 58.96141 V 51.89696 l -3.767727,3.370852 3.767727,3.073715 V 56.98037 h 3.631303 v 3.748609 h -1.228349 l 3.370855,3.767728 3.073712,-3.767728 H 66.433304 V 56.98037 h 3.763079 v 1.345653 l 3.76773,-3.371369 -3.76773,-3.073715 v 1.258838 h -3.763079 v -3.645771 h 1.360125 z"
       id="path6005"
       inkscape:connector-curvature="0"
       inkscape:export-xdpi="25.713165"
       inkscape:export-ydpi="25.713165" />
    <path
       style="fill:#000000;stroke:#006ea4;stroke-width:0.821;stroke-linecap:butt;stroke-linejoin:miter;stroke-opacity:1;stroke-miterlimit:4;stroke-dasharray:none;fill-opacity:0"
       d="m 17.01941,46.077569 -5.407708,3.767728 h 3.14389 V 61.08027 h -3.115705 l 5.930474,3.76773 5.407707,-3.76773 H 20.089654 V 49.845297 h 2.861136 z"
       id="path6029"
       inkscape:connector-curvature="0"
       inkscape:export-xdpi="25.713165"
       inkscape:export-ydpi="25.713165" />
    <g
       id="g6043"
       transform="matrix(0.78427511,0,0,0.78427511,19.504937,11.792463)"
       inkscape:export-xdpi="33.284111"
       inkscape:export-ydpi="33.284111">
      <g
         id="g6049"
         transform="translate(26.095717,-0.39094707)">
        <path
           style="fill:none;stroke:#006ea4;stroke-width:1.06500006;stroke-linecap:butt;stroke-linejoin:miter;stroke-miterlimit:4;stroke-dasharray:none;stroke-opacity:1"
           d="M 85.544206,52.631785 V 65.816017"
           id="path6037"
           inkscape:connector-curvature="0" />
        <circle
           style="opacity:1;fill:none;fill-opacity:1;stroke:#006ea4;stroke-width:0.82099998;stroke-miterlimit:4;stroke-dasharray:none;stroke-opacity:1"
           id="path6039"
           cx="85.441238"
           cy="49.908558"
           r="3.1427531" />
      </g>
    </g>
    <path
       inkscape:export-ydpi="29.574646"
       inkscape:export-xdpi="29.574646"
       inkscape:connector-curvature="0"
       id="path6045"
       d="m 42.851306,47.610619 -7.93724,2.00472 3.105563,0.153305 c 0,0 -2.426317,1.144702 -2.45288,5.924097 -0.01843,3.315247 2.491207,5.234224 2.491207,5.234224 l -2.847422,0.07665 8.23005,2.96288 1.306798,-3.307816 -2.466826,-0.114983 c 0,0 -2.770739,-1.428561 -2.75949,-4.927614 0.0139,-4.324228 3.181079,-5.694139 3.181079,-5.694139 l 2.899463,-0.07665 z"
       style="fill:#000000;fill-opacity:0;stroke:#006ea4;stroke-width:0.82099998;stroke-linecap:butt;stroke-linejoin:round;stroke-miterlimit:4;stroke-dasharray:none;stroke-opacity:1"
       sodipodi:nodetypes="cccscccccsccc" />
    <path
       inkscape:export-ydpi="28.842638"
       inkscape:export-xdpi="28.842638"
       inkscape:connector-curvature="0"
       id="path6051"
       d="m 95.815052,56.89149 -2.521095,-4.263755 v 1.24437 c 0,0 -0.855308,-0.7121 -1.803722,-1.015646 -1.205014,-0.385673 -1.842049,-0.287447 -1.842049,-0.287447 v -1.704893 h 1.595127 l -3.51373,-1.610562 -3.770961,1.610562 h 1.848971 l -0.0271,1.684767 c 0.0253,-0.01265 -1.060335,-0.03034 -1.82804,0.307573 -1.119333,0.492681 -1.771515,0.988545 -1.771515,0.988545 l 0.0182,-1.701416 -3.358493,4.070359 3.408045,2.413663 c 0,0 -0.193589,-1.604691 0.100463,-1.956532 0.402471,-0.481564 1.056318,-0.567779 1.695825,-0.736702 1.43779,-0.379786 1.800939,0.130291 1.800939,0.130291 l -0.03833,2.972838 h -1.345653 l 3.371369,3.76773 3.073715,-3.76773 H 89.64818 v -2.627902 c 0,0 0.546381,-0.36684 1.966327,-0.09854 0.997902,0.188556 1.532715,0.554934 1.532715,0.554934 l 0.01916,2.069161 z"
       style="opacity:1;fill:none;fill-opacity:1;stroke:#006ea4;stroke-width:0.6384207;stroke-linejoin:round;stroke-miterlimit:4;stroke-dasharray:none;stroke-opacity:1"
       sodipodi:nodetypes="cccscccccccsccccsscccccccsccc" />
  </g>
</svg>
